<svg xmlns="http://www.w3.org/2000/svg" viewBox="0 0 800 400" width="800" height="400" style="background-color: rgb(13, 17, 23); font-family: system-ui, -apple-system, sans-serif;"><defs><marker id="arrow" viewBox="0 0 10 10" refX="9" refY="5" markerWidth="6" markerHeight="6" orient="auto-start-reverse"><path d="M 0 0 L 10 5 L 0 10 z" fill="#8b949e"></path></marker></defs><path d="M100,200L120.833,200C141.667,200,183.333,200,225,200C266.667,200,308.333,200,329.167,200L350,200" fill="none" stroke="#30363d" stroke-width="2" marker-end="url(#arrow)"></path><text x="225" y="190" fill="#8b949e" font-size="12px" text-anchor="middle">UDS IPC</text><circle r="4" fill="#58a6ff" filter="drop-shadow(0 0 4px #58a6ff)"><animateMotion dur="2s" repeatCount="indefinite" path="M100,200L120.833,200C141.667,200,183.333,200,225,200C266.667,200,308.333,200,329.167,200L350,200" calcMode="linear"></animateMotion></circle><circle r="3" fill="#3fb950" filter="drop-shadow(0 0 3px #3fb950)"><animateMotion dur="2s" begin="1s" repeatCount="indefinite" path="M100,200L120.833,200C141.667,200,183.333,200,225,200C266.667,200,308.333,200,329.167,200L350,200" calcMode="linear"></animateMotion></circle><path d="M350,200L370.833,191.667C391.667,183.333,433.333,166.667,475,150C516.667,133.333,558.333,116.667,579.167,108.333L600,100" fill="none" stroke="#30363d" stroke-width="2" marker-end="url(#arrow)"></path><text x="475" y="140" fill="#8b949e" font-size="12px" text-anchor="middle">Parquet</text><circle r="4" fill="#58a6ff" filter="drop-shadow(0 0 4px #58a6ff)"><animateMotion dur="2s" repeatCount="indefinite" path="M350,200L370.833,191.667C391.667,183.333,433.333,166.667,475,150C516.667,133.333,558.333,116.667,579.167,108.333L600,100" calcMode="linear"></animateMotion></circle><circle r="3" fill="#3fb950" filter="drop-shadow(0 0 3px #3fb950)"><animateMotion dur="2s" begin="1s" repeatCount="indefinite" path="M350,200L370.833,191.667C391.667,183.333,433.333,166.667,475,150C516.667,133.333,558.333,116.667,579.167,108.333L600,100" calcMode="linear"></animateMotion></circle><path d="M350,200L370.833,200C391.667,200,433.333,200,475,200C516.667,200,558.333,200,579.167,200L600,200" fill="none" stroke="#30363d" stroke-width="2" marker-end="url(#arrow)"></path><text x="475" y="190" fill="#8b949e" font-size="12px" text-anchor="middle">Commits</text><circle r="4" fill="#58a6ff" filter="drop-shadow(0 0 4px #58a6ff)"><animateMotion dur="2s" repeatCount="indefinite" path="M350,200L370.833,200C391.667,200,433.333,200,475,200C516.667,200,558.333,200,579.167,200L600,200" calcMode="linear"></animateMotion></circle><circle r="3" fill="#3fb950" filter="drop-shadow(0 0 3px #3fb950)"><animateMotion dur="2s" begin="1s" repeatCount="indefinite" path="M350,200L370.833,200C391.667,200,433.333,200,475,200C516.667,200,558.333,200,579.167,200L600,200" calcMode="linear"></animateMotion></circle><path d="M350,200L350,210C350,220,350,240,350,260C350,280,350,300,350,310L350,320" fill="none" stroke="#30363d" stroke-width="2" marker-end="url(#arrow)"></path><text x="350" y="250" fill="#8b949e" font-size="12px" text-anchor="middle">/metrics</text><circle r="4" fill="#58a6ff" filter="drop-shadow(0 0 4px #58a6ff)"><animateMotion dur="2s" repeatCount="indefinite" path="M350,200L350,210C350,220,350,240,350,260C350,280,350,300,350,310L350,320" calcMode="linear"></animateMotion></circle><circle r="3" fill="#3fb950" filter="drop-shadow(0 0 3px #3fb950)"><animateMotion dur="2s" begin="1s" repeatCount="indefinite" path="M350,200L350,210C350,220,350,240,350,260C350,280,350,300,350,310L350,320" calcMode="linear"></animateMotion></circle><path d="M350,320L370.833,320C391.667,320,433.333,320,475,320C516.667,320,558.333,320,579.167,320L600,320" fill="none" stroke="#30363d" stroke-width="2" marker-end="url(#arrow)"></path><text x="475" y="310" fill="#8b949e" font-size="12px" text-anchor="middle">Remote Write</text><circle r="4" fill="#58a6ff" filter="drop-shadow(0 0 4px #58a6ff)"><animateMotion dur="2s" repeatCount="indefinite" path="M350,320L370.833,320C391.667,320,433.333,320,475,320C516.667,320,558.333,320,579.167,320L600,320" calcMode="linear"></animateMotion></circle><circle r="3" fill="#3fb950" filter="drop-shadow(0 0 3px #3fb950)"><animateMotion dur="2s" begin="1s" repeatCount="indefinite" path="M350,320L370.833,320C391.667,320,433.333,320,475,320C516.667,320,558.333,320,579.167,320L600,320" calcMode="linear"></animateMotion></circle><g class="node" transform="translate(100,200)"><rect x="-60" y="-30" width="120" height="60" rx="8" fill="#161b22" stroke="#e34c26" stroke-width="2"></rect><text y="-5" font-size="20px" text-anchor="middle">☕</text><text y="15" fill="#c9d1d9" font-size="12px" font-weight="bold" text-anchor="middle">Java App (SDK)</text></g><g class="node" transform="translate(350,200)"><rect x="-60" y="-30" width="120" height="60" rx="8" fill="#161b22" stroke="#e3b341" stroke-width="2"></rect><text y="-5" font-size="20px" text-anchor="middle">🦀</text><text y="15" fill="#c9d1d9" font-size="12px" font-weight="bold" text-anchor="middle">mIceWriter Engine</text></g><g class="node" transform="translate(600,100)"><rect x="-60" y="-30" width="120" height="60" rx="8" fill="#161b22" stroke="#00758f" stroke-width="2"></rect><text y="-5" font-size="20px" text-anchor="middle">🪣</text><text y="15" fill="#c9d1d9" font-size="12px" font-weight="bold" text-anchor="middle">MinIO (S3)</text></g><g class="node" transform="translate(600,200)"><rect x="-60" y="-30" width="120" height="60" rx="8" fill="#161b22" stroke="#68a063" stroke-width="2"></rect><text y="-5" font-size="20px" text-anchor="middle">🐘</text><text y="15" fill="#c9d1d9" font-size="12px" font-weight="bold" text-anchor="middle">Nessie Catalog</text></g><g class="node" transform="translate(350,320)"><rect x="-60" y="-30" width="120" height="60" rx="8" fill="#161b22" stroke="#e14a1a" stroke-width="2"></rect><text y="-5" font-size="20px" text-anchor="middle">🎯</text><text y="15" fill="#c9d1d9" font-size="12px" font-weight="bold" text-anchor="middle">Grafana Alloy</text></g><g class="node" transform="translate(600,320)"><rect x="-60" y="-30" width="120" height="60" rx="8" fill="#161b22" stroke="#f47a20" stroke-width="2"></rect><text y="-5" font-size="20px" text-anchor="middle">📊</text><text y="15" fill="#c9d1d9" font-size="12px" font-weight="bold" text-anchor="middle">Grafana Cloud</text></g><rect x="170" y="148" width="100" height="24" rx="4" fill="#238636" opacity="0.8"></rect><text x="220" y="164" fill="#ffffff" font-size="10px" font-family="monospace" text-anchor="middle">engine_ipc_*</text><rect x="450" y="118" width="100" height="24" rx="4" fill="#238636" opacity="0.8"></rect><text x="500" y="134" fill="#ffffff" font-size="10px" font-family="monospace" text-anchor="middle">engine_parquet_*</text><rect x="450" y="208" width="100" height="24" rx="4" fill="#238636" opacity="0.8"></rect><text x="500" y="224" fill="#ffffff" font-size="10px" font-family="monospace" text-anchor="middle">engine_catalog_*</text></svg>